<svg width="24" height="24" fill="none" xmlns="http://www.w3.org/2000/svg"><path d="M18.93 5.284a16.3 16.3 0 0 0-4.07-1.283.061.061 0 0 0-.066.031c-.175.318-.37.733-.506 1.059a14.985 14.985 0 0 0-4.573 0c-.136-.333-.338-.74-.515-1.059a.064.064 0 0 0-.065-.03c-1.428.25-2.795.687-4.07 1.282a.059.059 0 0 0-.028.024c-2.593 3.936-3.303 7.776-2.954 11.568a.07.07 0 0 0 .026.048 16.485 16.485 0 0 0 4.994 2.565.064.064 0 0 0 .07-.023c.385-.534.728-1.097 1.022-1.689a.065.065 0 0 0-.035-.09 10.84 10.84 0 0 1-1.56-.755.066.066 0 0 1-.007-.108c.105-.08.21-.163.31-.247a.06.06 0 0 1 .065-.009c3.273 1.519 6.817 1.519 10.051 0a.06.06 0 0 1 .066.008c.1.084.204.168.31.248a.066.066 0 0 1-.005.108 10.18 10.18 0 0 1-1.561.755.065.065 0 0 0-.034.09c.3.591.643 1.154 1.02 1.688a.063.063 0 0 0 .07.024 16.43 16.43 0 0 0 5.003-2.565.066.066 0 0 0 .026-.047c.417-4.384-.699-8.193-2.957-11.569a.05.05 0 0 0-.026-.024ZM8.684 14.567c-.985 0-1.797-.92-1.797-2.048 0-1.13.796-2.049 1.797-2.049 1.01 0 1.813.928 1.798 2.049 0 1.129-.796 2.048-1.798 2.048Zm6.646 0c-.986 0-1.797-.92-1.797-2.048 0-1.13.796-2.049 1.797-2.049 1.009 0 1.813.928 1.797 2.049 0 1.129-.788 2.048-1.797 2.048Z" fill="#fff" fill-opacity=".85"/></svg>